<svg preserveAspectRatio="none" width="100%" height="100%" overflow="visible" style="display: block;" viewBox="0 0 123.912 27.9999" fill="none" xmlns="http://www.w3.org/2000/svg">
<g id="LOGO BRANCA">
<path id="Vector" d="M31.3997 6.69971C27.8399 6.37145 25.0763 7.38064 22.7762 9.66739C22.1308 10.3106 21.3101 10.6433 20.5982 10.0999C20.0681 9.694 19.7309 8.90883 19.5535 8.23013C19.4648 7.89299 19.8418 7.34293 20.1501 7.01023C22.2572 4.79224 24.8678 3.53907 27.8909 3.09104C30.2355 2.73952 32.6311 2.99221 34.8509 3.82519C35.9113 4.22593 36.9138 4.76595 37.8318 5.43102C38.2216 5.68662 38.5004 6.07992 38.6127 6.53226C38.725 6.9846 38.6623 7.46265 38.4374 7.87081C37.8962 8.88444 37.1531 9.79603 36.4589 10.7276C36.2504 11.0048 35.9177 11.1911 35.5074 11.5327C36.6164 12.0185 37.5524 12.4709 38.5216 12.848C40.0742 13.4468 40.7707 14.5869 40.9725 16.175C41.2138 17.9552 40.991 19.7677 40.3256 21.4365C39.6601 23.1052 38.5748 24.5737 37.1747 25.6995C35.7746 26.8252 34.1073 27.57 32.3346 27.8616C30.5619 28.1533 28.7439 27.9818 27.0569 27.3639C25.37 26.7459 23.8714 25.7025 22.7065 24.3348C21.5416 22.9671 20.7499 21.3216 20.4083 19.5578C20.0666 17.7941 20.1866 15.9719 20.7565 14.2682C21.3264 12.5644 22.327 11.0369 23.6612 9.83374C24.7103 8.89774 25.8215 8.82455 26.6044 9.64521C27.3874 10.4659 27.1922 11.6259 26.1121 12.5907C24.9896 13.586 24.2364 14.9314 23.9747 16.4086C23.713 17.8859 23.9581 19.4082 24.6704 20.7285C25.3958 22.0663 26.552 23.1197 27.9512 23.7179C29.3505 24.3161 30.9108 24.4241 32.3792 24.0243C33.8475 23.6245 35.1377 22.7403 36.0405 21.5152C36.9432 20.2901 37.4057 18.796 37.3528 17.2751C37.3261 16.4589 37.0178 16.0552 36.2438 15.7802C33.9304 14.9706 31.6304 14.8065 29.3192 15.6981C28.2724 16.1018 27.4229 15.8866 26.7797 15.0083C26.1365 14.13 26.1853 13.265 26.895 12.4022C28.0594 10.9827 29.184 9.53209 30.324 8.09261C30.619 7.70668 30.9206 7.30744 31.3997 6.69971Z" fill="var(--fill-0, white)"/>
<path id="Vector_2" d="M44.1135 27.0721V10.4372C44.3671 10.3911 44.6235 10.3614 44.8809 10.3485C48.2722 10.4172 51.6746 10.3485 55.0481 10.6191C57.7541 10.8409 59.4641 13.0101 59.1403 15.5341C59.0183 16.4835 58.4128 17.3751 57.9892 18.3843C58.539 18.7536 58.994 19.2473 59.3173 19.8253C59.6406 20.4034 59.8231 21.0495 59.85 21.7113C59.9809 24.6213 58.1112 26.8126 54.8463 27.01C51.3242 27.2363 47.7776 27.0721 44.1135 27.0721ZM48.636 23.8827C50.4724 23.8827 52.2025 23.9337 53.9303 23.8627C54.8507 23.8228 55.4052 23.0132 55.4119 21.9863C55.4185 20.9594 54.8773 20.1099 53.9768 20.0722C52.218 19.999 50.4547 20.05 48.636 20.05V23.8827ZM48.636 16.845C50.2928 16.845 51.8387 16.8827 53.3802 16.8317C54.3362 16.8006 54.7265 16.113 54.731 15.2591C54.731 14.4717 54.4382 13.7221 53.531 13.6777C51.923 13.6023 50.3061 13.6577 48.636 13.6577V16.845Z" fill="var(--fill-0, white)"/>
<path id="Vector_3" d="M17.5686 10.7321V27.0033H13.4964V21.5248L13.1437 21.3274C11.3827 22.3433 10.3912 24.233 8.75657 25.5239L3.97683 20.3626V27.0587H0V10.3927C0.416979 10.8008 0.723063 11.0581 0.987002 11.3642C3.29591 13.9859 5.58708 16.6208 7.90265 19.2359C8.76766 20.2118 8.88965 20.1763 9.76131 19.1981C12.0858 16.5927 14.4198 13.9947 16.7635 11.4041C17.0184 11.1645 17.2873 10.9401 17.5686 10.7321Z" fill="var(--fill-0, white)"/>
<path id="Vector_4" d="M123.912 10.5259C122.958 11.8189 122.011 13.1187 121.048 14.4051C120.143 15.6095 119.274 16.8449 118.289 17.9872C117.402 19.023 116.98 20.1187 117.1 21.4938C117.233 22.9865 117.189 24.497 117.255 25.9964C117.289 26.7128 117.098 27.1054 116.279 27.081C115.29 27.041 114.297 27.0699 113.119 27.0699C113.119 25.901 112.995 24.8031 113.141 23.7429C113.571 20.6244 112.582 18.0715 110.479 15.7581C109.082 14.2055 107.967 12.4134 106.729 10.7233C106.664 10.5747 106.618 10.4191 106.589 10.2597C108.157 10.2597 109.681 10.2065 111.194 10.2996C111.526 10.3196 111.875 10.8164 112.136 11.1558C113.139 12.4577 114.113 13.7841 115.19 15.2302C116.317 13.7619 117.369 12.4444 118.351 11.0804C118.535 10.7818 118.798 10.5406 119.112 10.3838C119.425 10.227 119.776 10.161 120.125 10.1932C121.332 10.242 122.541 10.2065 123.747 10.2065L123.912 10.5259Z" fill="var(--fill-0, white)"/>
<path id="Vector_5" d="M104.476 13.9018H99.1524V26.866H95.7323V13.8974H90.4092C90.4092 12.7307 90.3737 11.7126 90.4425 10.7012C90.4425 10.5216 90.8861 10.231 91.1256 10.2266C95.3353 10.1822 99.545 10.1704 103.755 10.1911C103.997 10.1911 104.42 10.6347 104.442 10.8898C104.527 11.8324 104.476 12.7861 104.476 13.9018Z" fill="var(--fill-0, white)"/>
<path id="Vector_6" d="M80.5216 23.3567V26.9054H69.3475C69.3231 26.6348 69.2809 26.3887 69.2809 26.1425C69.2565 21.2629 69.2654 16.3944 69.1922 11.5214C69.1767 10.4413 69.5382 10.1485 70.5851 10.1685C73.1934 10.2217 73.1934 10.1685 73.1934 12.7436V23.3544L80.5216 23.3567Z" fill="var(--fill-0, white)"/>
<path id="Vector_7" d="M87.5698 27.0875H83.6284V10.3528C84.7374 10.3528 85.8464 10.3151 86.9288 10.3838C87.0795 10.4327 87.215 10.5196 87.3222 10.6362C87.4294 10.7527 87.5048 10.895 87.541 11.0492C87.5764 16.3569 87.5698 21.6557 87.5698 27.0875Z" fill="var(--fill-0, white)"/>
<path id="Vector_8" d="M62.5488 10.3971H66.2994V27.0587H62.5488V10.3971Z" fill="var(--fill-0, white)"/>
<path id="Vector_9" d="M37.4151 3.06899C37.4151 1.27019 38.5818 0.00593766 40.2674 0.00150168C40.663 -0.0112691 41.0569 0.0575279 41.4247 0.203607C41.7925 0.349687 42.1263 0.569923 42.4054 0.850601C42.6844 1.13128 42.9026 1.46639 43.0465 1.83507C43.1904 2.20375 43.2568 2.5981 43.2417 2.99358C43.2417 4.76797 42.0041 5.94572 40.1366 5.95903C38.5995 5.97234 37.4218 4.72139 37.4151 3.06899Z" fill="var(--fill-0, white)"/>
<path id="Vector_10" d="M42.8755 25.1824C42.8883 25.4117 42.8531 25.6412 42.7721 25.8562C42.6912 26.0712 42.5662 26.2669 42.4052 26.4308C42.2442 26.5947 42.0508 26.7232 41.8373 26.808C41.6239 26.8928 41.395 26.9322 41.1654 26.9235C40.1385 26.9412 39.3689 26.247 39.3511 25.2822C39.3334 24.3173 40.1851 23.4013 41.1255 23.4146C41.5891 23.426 42.0303 23.6165 42.3565 23.946C42.6828 24.2756 42.8688 24.7187 42.8755 25.1824Z" fill="var(--fill-0, white)"/>
<ellipse id="Ellipse 1" cx="30.6082" cy="17.7456" rx="0.88719" ry="0.887197" fill="var(--fill-0, white)"/>
</g>
</svg>
